<svg xmlns="http://www.w3.org/2000/svg" viewBox="0 0 198 195"><defs><clipPath id="a"><path d="M0 0h198v195H0z"/></clipPath></defs><g clip-path="url(#a)"><path d="M35.063 0h127.875A35.241 35.241 0 01198 35.417v124.166A35.241 35.241 0 01162.938 195H35.063A35.241 35.241 0 010 159.583V35.417A35.241 35.241 0 0135.063 0z" fill="#00005b"/><path d="M80.06 116.408H49.377l-6.3 19.36a1.564 1.564 0 01-1.594 1.2h-15.54q-1.33 0-.93-1.46L51.687 59.38l.8-2.526a28.4 28.4 0 00.53-5.38.82.82 0 01.93-.93h21.116q.928 0 1.063.664l30.04 84.426q.4 1.33-.8 1.328H88.103a1.23 1.23 0 01-1.328-.93zm-25.847-16.382h20.984q-.8-2.655-1.86-5.977-1.06-3.322-2.258-7.106l-2.4-7.572q-1.2-3.785-2.2-7.305-1-3.52-1.793-6.442h-.133a107.34 107.34 0 01-2.789 10.626q-1.862 5.977-3.786 12.22t-3.784 11.556zm61.254 35.674V86.743q0-2.257-.066-5.047-.066-2.8-.2-5.313l-.265-4.218a.79.79 0 01.133-.8 1.08 1.08 0 01.8-.266h13.26a2.97 2.97 0 011.329.266 1.25 1.25 0 01.664.93q.265.8.6 1.793c.245.88.4 1.78.465 2.7a26.68 26.68 0 018.766-5.114 30.16 30.16 0 019.962-1.66 25.27 25.27 0 017.77 1.262 19.63 19.63 0 0112.547 12.222c1.328 3.4 1.85 7.816 1.85 13.216v39q0 1.2-1.063 1.2l-15.52.137a1.17 1.17 0 01-.996-.332 1.179 1.179 0 01-.332-.996v-37a18.31 18.31 0 00-1.6-7.182 9.49 9.49 0 00-3.387-4.118 10 10 0 00-5.651-1.463 16.52 16.52 0 00-6.243 1.13 15.76 15.76 0 00-4.915 3.12v45.5q0 1.2-1.063 1.2h-15.65a1.057 1.057 0 01-1.2-1.2z" fill="#99f"/></g></svg>